<svg xmlns="http://www.w3.org/2000/svg" version="1.1" xmlns:xlink="http://www.w3.org/1999/xlink" xmlns:svgjs="http://svgjs.com/svgjs" width="1920" height="1000" preserveAspectRatio="none" viewBox="0 0 1920 1000"><g mask="url(&quot;#SvgjsMask1218&quot;)" fill="none"><rect width="1920" height="1000" x="0" y="0" fill="url(#SvgjsLinearGradient1219)"></rect><path d="M1920 0L1235.71 0L1920 285.34z" fill="rgba(255, 255, 255, .1)"></path><path d="M1235.71 0L1920 285.34L1920 402.53999999999996L860.9300000000001 0z" fill="rgba(255, 255, 255, .075)"></path><path d="M860.9300000000001 0L1920 402.53999999999996L1920 525.5L672.3000000000001 0z" fill="rgba(255, 255, 255, .05)"></path><path d="M672.3000000000002 0L1920 525.5L1920 708.05L489.96000000000015 0z" fill="rgba(255, 255, 255, .025)"></path><path d="M0 1000L518.59 1000L0 976.79z" fill="rgba(0, 0, 0, .1)"></path><path d="M0 976.79L518.59 1000L1179.5300000000002 1000L0 724.01z" fill="rgba(0, 0, 0, .075)"></path><path d="M0 724.01L1179.5300000000002 1000L1258.2700000000002 1000L0 492.1z" fill="rgba(0, 0, 0, .05)"></path><path d="M0 492.1L1258.2700000000002 1000L1390.5500000000002 1000L0 226.54000000000002z" fill="rgba(0, 0, 0, .025)"></path></g><defs><mask id="SvgjsMask1218"><rect width="1920" height="1000" fill="#ffffff"></rect></mask><linearGradient x1="88.02%" y1="123%" x2="11.98%" y2="-23%" gradientUnits="userSpaceOnUse" id="SvgjsLinearGradient1219"><stop stop-color="rgba(129, 209, 229, 1)" offset="0"></stop><stop stop-color="rgba(255, 128, 135, 1)" offset="1"></stop></linearGradient></defs></svg>